<svg width="24" height="24" viewBox="0 0 24 24" fill="none" xmlns="http://www.w3.org/2000/svg">
<path d="M18.9442 21.148L15.952 18.171L13.752 20.371L13.2635 19.8827C12.9187 19.5377 12.7462 19.1108 12.7462 18.602C12.7462 18.093 12.9187 17.6661 13.2635 17.3212L17.4212 13.1635C17.7661 12.8187 18.193 12.6462 18.702 12.6462C19.2108 12.6462 19.6377 12.8187 19.9827 13.1635L20.471 13.652L18.271 15.852L21.248 18.8442C21.4288 19.0249 21.5192 19.2358 21.5192 19.477C21.5192 19.718 21.4288 19.9288 21.248 20.1095L20.2095 21.148C20.0288 21.3288 19.818 21.4192 19.577 21.4192C19.3358 21.4192 19.1249 21.3288 18.9442 21.148ZM21.5 5.68849L10.3037 16.8942L10.7365 17.3115C11.0813 17.6563 11.2537 18.0832 11.2537 18.5922C11.2537 19.1012 11.0813 19.5282 10.7365 19.873L10.248 20.3615L8.04799 18.1615L5.05574 21.1385C4.87508 21.3192 4.66416 21.4095 4.42299 21.4095C4.18199 21.4095 3.97116 21.3192 3.79049 21.1385L2.75199 20.1C2.57116 19.9192 2.48074 19.7082 2.48074 19.4672C2.48074 19.2262 2.57116 19.0153 2.75199 18.8345L5.72899 15.8422L3.52899 13.6422L4.01724 13.1537C4.36224 12.8089 4.78916 12.6365 5.29799 12.6365C5.80699 12.6365 6.23391 12.8089 6.57874 13.1537L7.00574 13.5962L18.2115 2.39999H21.5V5.68849ZM7.29624 10.4942L2.49999 5.68849V2.39999H5.78849L10.575 7.19624L9.51549 8.24049L5.17499 3.89999H3.99999V5.07499L8.34999 9.42499L7.29624 10.4942ZM9.24999 15.825L20 5.07499V3.89999H18.825L8.07499 14.65L9.24999 15.825Z" fill="#030712"/>
</svg>
