<svg width="24" height="24" viewBox="0 0 24 24" fill="none" xmlns="http://www.w3.org/2000/svg">
<path d="M5.41925 10.6212L7.61925 11.552C7.89108 11.0083 8.18083 10.483 8.4885 9.976C8.79617 9.469 9.13525 8.96992 9.50575 8.47875L8.0385 8.19425C7.98717 8.18142 7.9375 8.183 7.8895 8.199C7.84133 8.215 7.798 8.24225 7.7595 8.28075L5.41925 10.6212ZM8.81525 12.4943L11.6558 15.3193C12.4006 15.0077 13.173 14.577 13.973 14.027C14.773 13.477 15.5327 12.8423 16.252 12.123C17.3737 11.0013 18.2413 9.77925 18.8547 8.45675C19.4683 7.13442 19.7717 5.77383 19.7652 4.375C18.3666 4.36867 17.0051 4.67217 15.6807 5.2855C14.3564 5.899 13.1333 6.76667 12.0115 7.8885C11.2923 8.60767 10.6578 9.36892 10.1078 10.1723C9.55775 10.9754 9.12692 11.7494 8.81525 12.4943ZM13.6308 10.4943C13.2923 10.1558 13.123 9.74425 13.123 9.25975C13.123 8.77508 13.2923 8.3635 13.6308 8.025C13.9693 7.6865 14.3849 7.51725 14.8778 7.51725C15.3708 7.51725 15.7865 7.6865 16.125 8.025C16.4635 8.3635 16.6328 8.77508 16.6328 9.25975C16.6328 9.74425 16.4635 10.1558 16.125 10.4943C15.7865 10.8328 15.3708 11.002 14.8778 11.002C14.3849 11.002 13.9693 10.8328 13.6308 10.4943ZM13.5193 18.7308L15.8595 16.3905C15.898 16.352 15.9253 16.3087 15.9413 16.2605C15.9573 16.2125 15.9589 16.1628 15.9462 16.1115L15.6615 14.6442C15.1705 15.0147 14.6715 15.3512 14.1645 15.6538C13.6573 15.9564 13.132 16.2437 12.5885 16.5155L13.5193 18.7308ZM21.1327 3.002C21.3468 4.92883 21.1188 6.75508 20.449 8.48075C19.7792 10.2064 18.6769 11.8366 17.1423 13.3713L17.0557 13.4578L16.9693 13.5442L17.421 15.8077C17.4813 16.1089 17.4679 16.4018 17.3807 16.6865C17.2936 16.9712 17.1429 17.2205 16.9288 17.4345L13.0078 21.346L11.1288 16.9308L7.20975 13.0115L2.79425 11.123L6.6905 7.2115C6.9045 6.9975 7.15642 6.84525 7.44625 6.75475C7.73592 6.66442 8.03142 6.64942 8.33275 6.70975L10.6155 7.17125C10.6475 7.13925 10.6747 7.11042 10.697 7.08475C10.7195 7.05908 10.7468 7.03017 10.7788 6.998C12.3134 5.4635 13.941 4.36033 15.6615 3.6885C17.382 3.01667 19.2057 2.78783 21.1327 3.002ZM4.52125 16.0713C5.00842 15.5841 5.60233 15.3395 6.303 15.3375C7.0035 15.3357 7.59733 15.5783 8.0845 16.0655C8.57167 16.5527 8.81275 17.1465 8.80775 17.847C8.80258 18.5477 8.55642 19.1416 8.06925 19.6288C7.69108 20.0069 7.07058 20.3316 6.20775 20.6028C5.34492 20.8739 4.23783 21.0909 2.8865 21.2538C3.04933 19.9026 3.26792 18.7956 3.54225 17.9327C3.81675 17.0699 4.14308 16.4494 4.52125 16.0713ZM5.5905 17.1345C5.411 17.314 5.23792 17.623 5.07125 18.0615C4.90458 18.5 4.79108 18.9474 4.73075 19.4038C5.18725 19.3436 5.63467 19.2311 6.073 19.0663C6.5115 18.9016 6.8205 18.7295 7 18.55C7.2 18.35 7.30517 18.1099 7.3155 17.8298C7.32567 17.5496 7.23075 17.3095 7.03075 17.1095C6.83075 16.9095 6.59067 16.8137 6.3105 16.822C6.0305 16.8303 5.7905 16.9345 5.5905 17.1345Z" fill="#030712"/>
</svg>
