<svg width="24" height="24" viewBox="0 0 24 24" fill="none" xmlns="http://www.w3.org/2000/svg">
<path d="M11.25 22.2V20.4693C9.16667 20.2551 7.41284 19.4358 5.9885 18.0115C4.56417 16.5872 3.74492 14.8333 3.53075 12.75H1.8V11.25H3.53075C3.74492 9.16667 4.56417 7.41284 5.9885 5.9885C7.41284 4.56417 9.16667 3.74492 11.25 3.53075V1.8H12.75V3.53075C14.8333 3.74492 16.5872 4.56417 18.0115 5.9885C19.4358 7.41284 20.2551 9.16667 20.4693 11.25H22.2V12.75H20.4693C20.2551 14.8333 19.4358 16.5872 18.0115 18.0115C16.5872 19.4358 14.8333 20.2551 12.75 20.4693V22.2H11.25ZM12 19C13.9333 19 15.5833 18.3167 16.95 16.95C18.3167 15.5833 19 13.9333 19 12C19 10.0667 18.3167 8.41667 16.95 7.05C15.5833 5.68334 13.9333 5 12 5C10.0667 5 8.41667 5.68334 7.05 7.05C5.68334 8.41667 5 10.0667 5 12C5 13.9333 5.68334 15.5833 7.05 16.95C8.41667 18.3167 10.0667 19 12 19ZM12 15.5C11.0375 15.5 10.2136 15.1573 9.52825 14.4718C8.84275 13.7864 8.5 12.9625 8.5 12C8.5 11.0375 8.84275 10.2136 9.52825 9.52825C10.2136 8.84275 11.0375 8.5 12 8.5C12.9625 8.5 13.7864 8.84275 14.4718 9.52825C15.1573 10.2136 15.5 11.0375 15.5 12C15.5 12.9625 15.1573 13.7864 14.4718 14.4718C13.7864 15.1573 12.9625 15.5 12 15.5ZM12 14C12.55 14 13.0208 13.8042 13.4125 13.4125C13.8042 13.0208 14 12.55 14 12C14 11.45 13.8042 10.9792 13.4125 10.5875C13.0208 10.1958 12.55 10 12 10C11.45 10 10.9792 10.1958 10.5875 10.5875C10.1958 10.9792 10 11.45 10 12C10 12.55 10.1958 13.0208 10.5875 13.4125C10.9792 13.8042 11.45 14 12 14Z" fill="#030712"/>
</svg>
