<svg width="24" height="24" viewBox="0 0 24 24" fill="none" xmlns="http://www.w3.org/2000/svg">
<path d="M9.75001 20.596C8.95134 20.596 8.26451 20.3194 7.68951 19.7663C7.11451 19.2131 6.79818 18.5423 6.74051 17.7538C5.82384 17.6141 5.06101 17.1949 4.45201 16.4962C3.84301 15.7974 3.53851 14.9782 3.53851 14.0385C3.53851 13.7103 3.58118 13.3861 3.66651 13.0658C3.75168 12.7454 3.87951 12.4447 4.05001 12.1635C3.84751 11.8698 3.69559 11.5522 3.59426 11.2108C3.49293 10.8691 3.44226 10.5104 3.44226 10.1348C3.44226 9.17542 3.75801 8.34583 4.38951 7.646C5.02084 6.94617 5.80259 6.53917 6.73476 6.425C6.72826 6.39933 6.72501 6.37367 6.72501 6.348V6.2615C6.75584 5.45633 7.06384 4.77558 7.64901 4.21925C8.23434 3.66292 8.93468 3.38475 9.75001 3.38475C10.209 3.38475 10.618 3.4745 10.977 3.654C11.336 3.83333 11.677 4.08717 12 4.4155C12.3192 4.08717 12.6577 3.83333 13.0155 3.654C13.3732 3.4745 13.7847 3.38475 14.25 3.38475C15.0563 3.38475 15.7503 3.66192 16.3318 4.21625C16.9131 4.77075 17.2192 5.44742 17.25 6.24625V6.33275C17.25 6.35842 17.2468 6.38408 17.2403 6.40975C18.1724 6.52375 18.9583 6.93175 19.598 7.63375C20.2378 8.33558 20.5578 9.16925 20.5578 10.1348C20.5578 10.5104 20.5055 10.8691 20.401 11.2108C20.2965 11.5522 20.1429 11.8698 19.9403 12.1635C20.1108 12.4443 20.2403 12.7449 20.3288 13.0652C20.4173 13.3857 20.4615 13.7102 20.4615 14.0385C20.4615 14.9948 20.1544 15.8198 19.5403 16.5135C18.9263 17.207 18.1577 17.6204 17.2345 17.7538C17.1768 18.5423 16.8647 19.2131 16.298 19.7663C15.7313 20.3194 15.0487 20.596 14.25 20.596C13.7885 20.596 13.3779 20.5088 13.0183 20.3345C12.6586 20.1602 12.3192 19.9057 12 19.571C11.6705 19.9057 11.3269 20.1602 10.9693 20.3345C10.6116 20.5088 10.2052 20.596 9.75001 20.596ZM12.75 6.38475V17.5962C12.75 18.0162 12.8954 18.3713 13.1863 18.6613C13.4771 18.9513 13.833 19.0962 14.254 19.0962C14.6552 19.0962 14.999 18.9468 15.2855 18.648C15.5722 18.3493 15.727 18.0013 15.75 17.6038C15.3295 17.5154 14.9413 17.3555 14.5855 17.124C14.2298 16.8927 13.9225 16.5962 13.6635 16.2345C13.5353 16.059 13.487 15.8721 13.5185 15.6738C13.55 15.4754 13.6541 15.3143 13.8308 15.1905C14.0064 15.0622 14.1946 15.0138 14.3953 15.0455C14.5961 15.077 14.7592 15.1811 14.8845 15.3577C15.0913 15.6586 15.3546 15.8889 15.6743 16.0488C15.9939 16.2086 16.3397 16.2885 16.7115 16.2885C17.3385 16.2885 17.8703 16.0703 18.3068 15.6337C18.7433 15.1971 18.9615 14.6653 18.9615 14.0385C18.9615 13.9123 18.9493 13.7863 18.925 13.6603C18.9007 13.5343 18.8622 13.4103 18.8095 13.2885C18.5262 13.4808 18.2137 13.6283 17.872 13.7308C17.5303 13.8333 17.1756 13.8845 16.8078 13.8845C16.5953 13.8845 16.4171 13.8127 16.2733 13.669C16.1296 13.5252 16.0578 13.3469 16.0578 13.1342C16.0578 12.9218 16.1296 12.7437 16.2733 12.6C16.4171 12.4565 16.5953 12.3848 16.8078 12.3848C17.4346 12.3848 17.9663 12.1664 18.403 11.7298C18.8395 11.2933 19.0578 10.7616 19.0578 10.1348C19.0578 9.51775 18.8427 8.99425 18.4125 8.56425C17.9823 8.13425 17.4603 7.90767 16.8463 7.8845C16.6756 8.191 16.4508 8.45833 16.172 8.6865C15.8932 8.91467 15.582 9.09542 15.2385 9.22875C15.0423 9.30308 14.8508 9.29692 14.664 9.21025C14.4772 9.12358 14.3527 8.98108 14.2905 8.78275C14.2263 8.58658 14.234 8.39392 14.3135 8.20475C14.393 8.01575 14.534 7.88917 14.7365 7.825C15.0378 7.7225 15.2821 7.54042 15.4693 7.27875C15.6564 7.01725 15.75 6.71758 15.75 6.37975C15.75 5.96242 15.6049 5.60892 15.3148 5.31925C15.0248 5.02942 14.6697 4.8845 14.2495 4.8845C13.8293 4.8845 13.4743 5.0295 13.1845 5.3195C12.8948 5.6095 12.75 5.96458 12.75 6.38475ZM11.25 17.5962V6.38475C11.25 5.96458 11.1049 5.6095 10.8148 5.3195C10.5248 5.0295 10.1697 4.8845 9.74951 4.8845C9.32934 4.8845 8.97434 5.0295 8.68451 5.3195C8.39484 5.6095 8.25001 5.96458 8.25001 6.38475C8.25001 6.70908 8.34101 7.00458 8.52301 7.27125C8.70518 7.53792 8.94684 7.7225 9.24801 7.825C9.44418 7.88917 9.58776 8.01417 9.67876 8.2C9.76976 8.38583 9.78376 8.57758 9.72076 8.77525C9.64526 8.97275 9.51301 9.11467 9.32401 9.201C9.13501 9.2875 8.93918 9.29358 8.73651 9.21925C8.39301 9.08592 8.08184 8.90675 7.80301 8.68175C7.52418 8.45675 7.29943 8.191 7.12876 7.8845C6.53143 7.90767 6.01768 8.1375 5.58751 8.574C5.15734 9.0105 4.94226 9.53175 4.94226 10.1378C4.94226 10.7626 5.16051 11.2933 5.59701 11.7298C6.03368 12.1664 6.56543 12.3848 7.19226 12.3848C7.40476 12.3848 7.58293 12.4566 7.72676 12.6003C7.87043 12.7441 7.94226 12.9223 7.94226 13.135C7.94226 13.3475 7.87043 13.5256 7.72676 13.6692C7.58293 13.8127 7.40476 13.8845 7.19226 13.8845C6.82443 13.8845 6.46968 13.8333 6.12801 13.7308C5.78634 13.6283 5.47384 13.4808 5.19051 13.2885C5.13784 13.4103 5.09934 13.5343 5.07501 13.6603C5.05068 13.7863 5.03851 13.9123 5.03851 14.0385C5.03851 14.6653 5.25676 15.1971 5.69326 15.6337C6.12976 16.0703 6.66151 16.2885 7.28851 16.2885C7.66218 16.2885 8.00784 16.2081 8.32551 16.0473C8.64318 15.8863 8.90651 15.6564 9.11551 15.3577C9.24084 15.1811 9.40393 15.077 9.60476 15.0455C9.80543 15.0138 9.99359 15.0605 10.1693 15.1855C10.3449 15.3105 10.4488 15.4727 10.4808 15.672C10.5128 15.8715 10.4647 16.059 10.3365 16.2345C10.0712 16.5962 9.75801 16.8953 9.39701 17.1318C9.03618 17.3683 8.64551 17.5308 8.22501 17.6193C8.24801 18.0168 8.40701 18.3622 8.70201 18.6557C8.99684 18.9494 9.34484 19.0962 9.74601 19.0962C10.167 19.0962 10.5229 18.9513 10.8138 18.6613C11.1046 18.3713 11.25 18.0162 11.25 17.5962Z" fill="#030712"/>
</svg>
